<?xml version="1.0" encoding="UTF-8" standalone="no"?>
<!-- Created with Inkscape (http://www.inkscape.org/) -->

<svg
   xmlns:dc="http://purl.org/dc/elements/1.1/"
   xmlns:cc="http://creativecommons.org/ns#"
   xmlns:rdf="http://www.w3.org/1999/02/22-rdf-syntax-ns#"
   xmlns:svg="http://www.w3.org/2000/svg"
   xmlns="http://www.w3.org/2000/svg"
   version="1.1"
   width="175.5"
   height="75"
   id="svg2"
   xml:space="preserve"><metadata
     id="metadata8"><rdf:RDF><cc:Work
         rdf:about=""><dc:format>image/svg+xml</dc:format><dc:type
           rdf:resource="http://purl.org/dc/dcmitype/StillImage" /><dc:title></dc:title></cc:Work></rdf:RDF></metadata><defs
     id="defs6"><clipPath
       id="clipPath48"><path
         d="m 12.496,12.496 1255.748,0 0,858.898 -1255.748,0 0,-858.898 z"
         id="path50" /></clipPath><clipPath
       id="clipPath72"><path
         d="m 12.496,12.496 1255.748,0 0,858.898 -1255.748,0 0,-858.898 z"
         id="path74" /></clipPath><clipPath
       id="clipPath96"><path
         d="m 662.047,656.252 247.369,0 0,-108.134 -247.369,0 0,108.134 z"
         id="path98" /></clipPath><clipPath
       id="clipPath112"><path
         d="m 724.442,774.924 519.188,0 0,-175.845 -519.188,0 0,175.845 z"
         id="path114" /></clipPath><clipPath
       id="clipPath128"><path
         d="m 724.386,593.147 536.414,0 0,-135.292 -536.414,0 0,135.292 z"
         id="path130" /></clipPath><clipPath
       id="clipPath150"><path
         d="m 12.496,12.496 1255.748,0 0,858.898 -1255.748,0 0,-858.898 z"
         id="path152" /></clipPath><clipPath
       id="clipPath178"><path
         d="m 12.496,12.496 1255.748,0 0,858.898 -1255.748,0 0,-858.898 z"
         id="path180" /></clipPath><clipPath
       id="clipPath222"><path
         d="m 0,0 1280.74,0 0,883.89 L 0,883.89 0,0 z"
         id="path224" /></clipPath></defs><g
     transform="matrix(1.25,0,0,-1.25,-828.07375,101.73828)"
     id="g10"><path
       d="m 799.66227,24.467434 -133.822,0 0,24.338 133.822,0 0,-24.338 z"
       id="path140"
       style="fill:#ed1c24;fill-opacity:1;fill-rule:nonzero;stroke:none" /><g
       transform="translate(676.50407,35.252134)"
       id="g142"><path
         d="M 0,0 1.398,4.069 2.796,0 0,0 z m 3.143,7.033 -3.394,0 -4.223,-11.425 2.974,0 0.798,2.315 4.2,0 0.799,-2.315 3.069,0 -4.223,11.425 z"
         id="path144"
         style="fill:#fff200;fill-opacity:1;fill-rule:nonzero;stroke:none" /></g><g
       transform="translate(-403.41073,-47.941566)"
       id="g146"><g
         clip-path="url(#clipPath150)"
         id="g148"><g
           transform="translate(1096.2982,84.9328)"
           id="g154"><path
             d="m 0,0 0,-6.131 -2.759,0 0,4.321 c 0,0.421 -0.011,0.779 -0.031,1.074 C -2.81,-0.44 -2.866,-0.2 -2.958,-0.015 -3.05,0.169 -3.189,0.304 -3.375,0.389 -3.562,0.473 -3.823,0.516 -4.16,0.516 -4.43,0.516 -4.694,0.461 -4.949,0.351 -5.204,0.24 -5.434,0.123 -5.637,0 l 0,-6.131 -2.76,0 0,8.606 2.76,0 0,-0.925 c 0.473,0.374 0.926,0.666 1.359,0.876 0.433,0.21 0.912,0.316 1.436,0.316 0.566,0 1.065,-0.127 1.498,-0.381 0.433,-0.254 0.772,-0.627 1.016,-1.119 0.55,0.466 1.085,0.833 1.604,1.099 0.52,0.267 1.029,0.401 1.528,0.401 0.927,0 1.631,-0.28 2.112,-0.839 C 5.397,1.345 5.638,0.54 5.638,-0.51 l 0,-5.621 -2.759,0 0,4.321 c 0,0.426 -0.01,0.785 -0.028,1.079 C 2.834,-0.439 2.779,-0.2 2.687,-0.015 2.6,0.169 2.463,0.304 2.274,0.389 2.085,0.473 1.819,0.516 1.478,0.516 1.248,0.516 1.023,0.476 0.804,0.396 0.585,0.317 0.316,0.185 0,0"
             id="path156"
             style="fill:#fff200;fill-opacity:1;fill-rule:nonzero;stroke:none" /></g><g
           transform="translate(1109.6796,86.3529)"
           id="g158"><path
             d="m 0,0 c -0.082,-0.189 -0.255,-0.341 -0.519,-0.46 -0.189,-0.087 -0.447,-0.139 -0.773,-0.153 -0.326,-0.017 -0.72,-0.024 -1.183,-0.024 l -0.459,0 0,2.433 0.275,0 c 0.576,0 1.023,-0.004 1.341,-0.012 C -1,1.777 -0.734,1.731 -0.519,1.649 -0.281,1.556 -0.114,1.415 -0.02,1.225 0.075,1.034 0.122,0.843 0.122,0.653 0.122,0.406 0.082,0.189 0,0 M 3.234,-2.206 C 2.795,-1.74 2.203,-1.433 1.455,-1.284 l 0,0.06 c 0.529,0.235 0.939,0.563 1.229,0.984 0.29,0.423 0.435,0.909 0.435,1.461 0,0.475 -0.106,0.898 -0.317,1.269 C 2.59,2.86 2.267,3.155 1.833,3.375 1.415,3.585 0.993,3.719 0.567,3.781 0.141,3.842 -0.531,3.873 -1.449,3.873 l -4.422,0 0,-11.424 4.98,0 c 0.827,0 1.511,0.071 2.05,0.215 0.538,0.143 1.033,0.384 1.482,0.723 0.389,0.286 0.693,0.646 0.916,1.082 0.222,0.434 0.334,0.929 0.334,1.483 0,0.761 -0.22,1.376 -0.657,1.842 M 0.663,-4.748 c -0.115,-0.215 -0.325,-0.387 -0.63,-0.516 -0.3,-0.13 -0.628,-0.197 -0.984,-0.202 -0.356,-0.005 -0.946,-0.007 -1.769,-0.007 l -0.214,0 0,2.877 0.641,0 c 0.437,0 0.856,-0.002 1.259,-0.008 0.401,-0.004 0.716,-0.04 0.945,-0.108 0.336,-0.098 0.573,-0.247 0.713,-0.446 0.14,-0.199 0.21,-0.482 0.21,-0.849 0,-0.28 -0.057,-0.527 -0.171,-0.741"
             id="path160"
             style="fill:#fff200;fill-opacity:1;fill-rule:nonzero;stroke:none" /></g><g
           transform="translate(1119.198,80.5747)"
           id="g162"><path
             d="m 0,0 c -0.276,-0.113 -0.548,-0.17 -0.817,-0.17 -0.337,0 -0.586,0.024 -0.745,0.074 -0.159,0.049 -0.296,0.125 -0.41,0.228 -0.119,0.103 -0.194,0.211 -0.224,0.325 -0.03,0.114 -0.044,0.262 -0.044,0.442 0,0.274 0.07,0.495 0.212,0.662 0.142,0.169 0.347,0.297 0.615,0.384 0.218,0.073 0.539,0.135 0.962,0.19 0.422,0.054 0.815,0.097 1.178,0.128 l 0,-1.813 C 0.518,0.264 0.276,0.113 0,0 m 0.727,-1.773 2.76,0 0,5.869 C 3.487,5.131 3.139,5.89 2.445,6.373 1.751,6.858 0.623,7.1 -0.938,7.1 -1.595,7.1 -2.249,7.047 -2.902,6.944 -3.556,6.839 -4.028,6.749 -4.317,6.673 l 0,-2.066 0.25,0 c 0.221,0.088 0.588,0.215 1.098,0.378 0.51,0.163 0.989,0.245 1.439,0.245 0.747,0 1.313,-0.093 1.697,-0.279 C 0.551,4.765 0.742,4.429 0.742,3.942 l 0,-0.047 C -0.061,3.849 -0.836,3.776 -1.583,3.679 -2.33,3.58 -2.957,3.416 -3.461,3.184 -3.971,2.953 -4.365,2.635 -4.643,2.234 -4.921,1.832 -5.059,1.314 -5.059,0.681 c 0,-0.794 0.272,-1.445 0.818,-1.956 0.545,-0.509 1.221,-0.765 2.029,-0.765 0.344,0 0.66,0.035 0.947,0.103 0.288,0.069 0.565,0.166 0.833,0.295 0.192,0.091 0.396,0.217 0.613,0.375 0.217,0.159 0.399,0.294 0.546,0.407 l 0,-0.913 z"
             id="path164"
             style="fill:#fff200;fill-opacity:1;fill-rule:nonzero;stroke:none" /></g><g
           transform="translate(1133.0262,78.8021)"
           id="g166"><path
             d="m 0,0 -2.76,0 0,4.29 c 0,0.349 -0.017,0.696 -0.054,1.043 C -2.85,5.68 -2.911,5.936 -2.998,6.1 -3.1,6.29 -3.25,6.428 -3.447,6.515 -3.644,6.603 -3.919,6.647 -4.272,6.647 -4.523,6.647 -4.777,6.606 -5.035,6.523 -5.293,6.441 -5.574,6.31 -5.875,6.131 l 0,-6.131 -2.76,0 0,8.605 2.76,0 0,-0.925 c 0.489,0.385 0.959,0.68 1.411,0.885 0.452,0.205 0.953,0.307 1.504,0.307 0.928,0 1.653,-0.271 2.176,-0.815 C -0.262,7.514 0,6.702 0,5.62 L 0,0 z"
             id="path168"
             style="fill:#fff200;fill-opacity:1;fill-rule:nonzero;stroke:none" /></g></g></g><g
       transform="translate(740.44727,30.860534)"
       id="g170"><path
         d="M 0,0 -3.191,0 -5.622,3.764 -6.38,2.837 -6.38,0 l -2.759,0 0,11.929 2.759,0 0,-7.086 2.957,3.762 3.216,0 L -3.32,4.896 0,0 z"
         id="path172"
         style="fill:#fff200;fill-opacity:1;fill-rule:nonzero;stroke:none" /></g><g
       transform="translate(-403.41073,-47.941566)"
       id="g174"><g
         clip-path="url(#clipPath178)"
         id="g176"><g
           transform="translate(1159.1372,79.4548)"
           id="g182"><path
             d="M 0,0 C -0.51,-0.199 -1.186,-0.398 -2.027,-0.595 -2.87,-0.791 -3.708,-0.89 -4.544,-0.89 c -1.939,0 -3.456,0.528 -4.553,1.586 -1.097,1.057 -1.645,2.519 -1.645,4.382 0,1.778 0.553,3.21 1.659,4.298 1.105,1.088 2.646,1.633 4.622,1.633 0.749,0 1.462,-0.068 2.14,-0.203 0.678,-0.136 1.431,-0.404 2.262,-0.807 l 0,-2.67 -0.329,0 C -0.53,7.434 -0.739,7.582 -1.014,7.773 -1.289,7.964 -1.553,8.126 -1.807,8.261 -2.102,8.42 -2.448,8.557 -2.842,8.671 -3.236,8.785 -3.655,8.843 -4.098,8.843 -4.617,8.843 -5.088,8.766 -5.509,8.612 -5.932,8.458 -6.312,8.223 -6.647,7.906 -6.968,7.599 -7.221,7.209 -7.406,6.735 -7.593,6.261 -7.685,5.715 -7.685,5.095 c 0,-1.264 0.333,-2.232 0.998,-2.902 0.666,-0.67 1.649,-1.006 2.95,-1.006 0.112,0 0.236,0.002 0.37,0.008 0.134,0.005 0.258,0.012 0.37,0.023 l 0,2.254 -2.255,0 0,2.166 L 0,5.638 0,0 z"
             id="path184"
             style="fill:#fff200;fill-opacity:1;fill-rule:nonzero;stroke:none" /></g><g
           transform="translate(1167.0085,84.7365)"
           id="g186"><path
             d="m 0,0 -0.245,0 c -0.117,0.04 -0.306,0.07 -0.565,0.089 -0.261,0.02 -0.477,0.03 -0.65,0.03 -0.393,0 -0.74,-0.025 -1.041,-0.076 -0.301,-0.052 -0.624,-0.137 -0.971,-0.259 l 0,-5.718 -2.759,0 0,8.605 2.759,0 0,-1.265 c 0.607,0.521 1.134,0.862 1.583,1.023 0.449,0.161 0.861,0.242 1.239,0.242 0.096,0 0.206,-0.003 0.328,-0.008 C -0.199,2.657 -0.092,2.65 0,2.64 L 0,0 z"
             id="path188"
             style="fill:#fff200;fill-opacity:1;fill-rule:nonzero;stroke:none" /></g><g
           transform="translate(1172.5411,80.5901)"
           id="g190"><path
             d="m 0,0 c -0.227,-0.085 -0.465,-0.126 -0.716,-0.126 -0.292,0 -0.552,0.046 -0.778,0.137 -0.228,0.092 -0.424,0.237 -0.587,0.436 -0.169,0.209 -0.296,0.485 -0.383,0.829 -0.087,0.344 -0.129,0.751 -0.129,1.22 0,0.525 0.049,0.96 0.149,1.306 0.099,0.347 0.233,0.62 0.402,0.819 0.189,0.213 0.387,0.356 0.594,0.428 0.207,0.07 0.443,0.107 0.709,0.107 0.265,0 0.513,-0.044 0.743,-0.131 C 0.234,4.939 0.43,4.791 0.595,4.582 0.758,4.378 0.886,4.105 0.977,3.764 1.069,3.423 1.116,3 1.116,2.496 1.116,1.951 1.07,1.523 0.981,1.215 0.892,0.906 0.758,0.643 0.579,0.424 0.42,0.225 0.228,0.084 0,0 M 2.736,5.859 C 1.918,6.675 0.76,7.084 -0.739,7.084 c -1.479,0 -2.633,-0.406 -3.46,-1.218 -0.829,-0.812 -1.243,-1.93 -1.243,-3.355 0,-1.415 0.412,-2.53 1.235,-3.344 0.823,-0.815 1.979,-1.222 3.468,-1.222 1.489,0 2.645,0.407 3.468,1.222 0.824,0.814 1.235,1.929 1.235,3.344 0,1.414 -0.409,2.531 -1.228,3.348"
             id="path192"
             style="fill:#fff200;fill-opacity:1;fill-rule:nonzero;stroke:none" /></g><g
           transform="translate(1186.2183,78.8021)"
           id="g194"><path
             d="m 0,0 -2.759,0 0,0.925 c -0.51,-0.39 -0.977,-0.686 -1.4,-0.888 -0.423,-0.203 -0.929,-0.304 -1.515,-0.304 -0.948,0 -1.679,0.274 -2.192,0.822 -0.512,0.549 -0.768,1.359 -0.768,2.43 l 0,5.62 2.759,0 0,-4.29 c 0,-0.437 0.014,-0.8 0.042,-1.09 0.028,-0.29 0.093,-0.53 0.196,-0.72 0.097,-0.19 0.245,-0.329 0.441,-0.416 0.197,-0.087 0.472,-0.131 0.825,-0.131 0.236,0 0.496,0.044 0.783,0.131 0.286,0.087 0.562,0.216 0.829,0.386 l 0,6.13 L 0,8.605 0,0 z"
             id="path196"
             style="fill:#fff200;fill-opacity:1;fill-rule:nonzero;stroke:none" /></g><g
           transform="translate(1193.5759,81.2256)"
           id="g198"><path
             d="m 0,0 c -0.358,-0.429 -0.903,-0.643 -1.634,-0.643 -0.205,0 -0.412,0.01 -0.621,0.031 -0.21,0.02 -0.407,0.067 -0.591,0.139 l 0,4.353 c 0.251,0.148 0.514,0.263 0.79,0.342 0.276,0.08 0.545,0.119 0.806,0.119 0.618,0 1.071,-0.189 1.357,-0.569 C 0.394,3.392 0.537,2.78 0.537,1.938 0.537,1.075 0.358,0.429 0,0 M 2.491,5.264 C 1.895,6.054 1.06,6.449 -0.014,6.449 -0.593,6.449 -1.103,6.338 -1.546,6.12 -1.988,5.9 -2.422,5.622 -2.846,5.285 l 0,0.897 -2.759,0 0,-11.75 2.759,0 0,3.564 c 0.358,-0.189 0.709,-0.335 1.051,-0.44 0.343,-0.105 0.76,-0.158 1.252,-0.158 0.532,0 1.031,0.103 1.496,0.308 0.465,0.206 0.882,0.508 1.25,0.909 0.353,0.379 0.639,0.861 0.856,1.447 0.217,0.584 0.326,1.233 0.326,1.946 0,1.38 -0.298,2.465 -0.894,3.256"
             id="path200"
             style="fill:#fff200;fill-opacity:1;fill-rule:nonzero;stroke:none" /></g><g
           transform="translate(1131.2694,111.827)"
           id="g202"><path
             d="m 0,0 c -0.87,-1.008 -2.152,-1.645 -3.589,-1.645 -2.612,0 -4.728,2.115 -4.728,4.727 0,2.611 2.116,4.727 4.728,4.727 2.612,0 4.73,-2.116 4.73,-4.727 l 0,-12.044 7.323,0 -0.006,11.994 c 0,6.655 -5.393,12.047 -12.047,12.047 -6.651,0 -12.044,-5.392 -12.044,-12.047 0,-6.653 5.393,-12.045 12.044,-12.045 1.247,0 2.451,0.189 3.583,0.543 L 0,0 z"
             id="path204"
             style="fill:#ed1c24;fill-opacity:1;fill-rule:nonzero;stroke:none" /></g><g
           transform="translate(1131.2694,111.827)"
           id="g206"><path
             d="m 0,0 c -0.87,-1.008 -2.152,-1.645 -3.589,-1.645 -2.612,0 -4.728,2.115 -4.728,4.727 0,2.611 2.116,4.727 4.728,4.727 2.612,0 4.73,-2.116 4.73,-4.727 l 0,-12.044 7.323,0 -0.006,11.994 c 0,6.655 -5.393,12.047 -12.047,12.047 -6.651,0 -12.044,-5.392 -12.044,-12.047 0,-6.653 5.393,-12.045 12.044,-12.045 1.247,0 2.451,0.189 3.583,0.543 L 0,0 z"
             id="path208"
             style="fill:none;stroke:#ed1c24;stroke-width:0.22;stroke-linecap:butt;stroke-linejoin:miter;stroke-miterlimit:4;stroke-opacity:1;stroke-dasharray:none" /></g><g
           transform="translate(1143.1112,102.9154)"
           id="g210"><path
             d="m 0,0 c 0.522,-0.069 1.057,-0.105 1.595,-0.105 6.653,0 12.045,5.393 12.045,12.044 0,6.654 -5.392,12.048 -12.045,12.048 -2.909,0 -5.583,-1.035 -7.667,-2.756 l 0.014,-0.027 c 1.814,-1.844 3.086,-4.22 3.561,-6.871 l 0.018,0.007 c 0.823,1.396 2.34,2.328 4.074,2.328 2.614,0 4.73,-2.116 4.73,-4.729 0,-2.608 -2.116,-4.728 -4.73,-4.728 -0.561,0 -1.1,0.099 -1.604,0.281 L 0,0 z"
             id="path212"
             style="fill:#ed1c24;fill-opacity:1;fill-rule:nonzero;stroke:none" /></g><g
           transform="translate(1143.1112,102.9154)"
           id="g214"><path
             d="m 0,0 c 0.522,-0.069 1.057,-0.105 1.595,-0.105 6.653,0 12.045,5.393 12.045,12.044 0,6.654 -5.392,12.048 -12.045,12.048 -2.909,0 -5.583,-1.035 -7.667,-2.756 l 0.014,-0.027 c 1.814,-1.844 3.086,-4.22 3.561,-6.871 l 0.018,0.007 c 0.823,1.396 2.34,2.328 4.074,2.328 2.614,0 4.73,-2.116 4.73,-4.729 0,-2.608 -2.116,-4.728 -4.73,-4.728 -0.561,0 -1.1,0.099 -1.604,0.281 L 0,0 z"
             id="path216"
             style="fill:none;stroke:#ed1c24;stroke-width:0.22;stroke-linecap:butt;stroke-linejoin:miter;stroke-miterlimit:4;stroke-opacity:1;stroke-dasharray:none" /></g></g></g></g></svg>