<?xml version="1.0" encoding="UTF-8"?>
<svg width="30px" height="45px" viewBox="0 0 30 45" version="1.1" xmlns="http://www.w3.org/2000/svg" xmlns:xlink="http://www.w3.org/1999/xlink">
    <!-- Generator: Sketch 56 (81588) - https://sketch.com -->
    <title>Hong_Leong_Bank@SVG</title>
    <desc>Created with Sketch.</desc>
    <g id="Page-1" stroke="none" stroke-width="1" fill="none" fill-rule="evenodd">
        <g id="Hong_Leong_Bank" transform="translate(-1.000000, 0.000000)">
            <g id="g10" transform="translate(16.000000, 22.859951) scale(-1, 1) rotate(-180.000000) translate(-16.000000, -22.859951) translate(0.000000, 0.359951)">
                <g id="g1622" transform="translate(0.662693, 11.680053)" fill="#00529B">
                    <path d="M14.9240172,11.0637765 C9.74413956,14.9756118 5.35150383,20.6529096 3.92501652,24.3719191 L0.697697804,21.9410493 C2.53708292,17.7431364 5.50198767,14.3544597 8.42958238,11.0637765 C14.8481534,4.00508709 25.469079,-0.050577264 30.1987488,0.140668016 L30.1987488,5.10040097 C27.5721218,4.86332004 20.815273,6.57978594 14.9240172,11.0637765" id="path1624"></path>
                </g>
                <g id="g1626" transform="translate(6.599965, 19.941534)" fill="#00529B">
                    <path d="M3.7310043,20.5470135 L0.429065495,18.1161437 C5.38259554,8.6708397 14.6914513,1.03683391 24.2614773,0.466259152 L24.2614773,5.32957919 C16.3057325,5.80848266 8.1597064,11.7702777 3.7310043,20.5470135" id="path1628"></path>
                </g>
                <g id="g1630" transform="translate(12.267361, 27.586603)" fill="#00529B">
                    <path d="M3.7310043,17.3859345 L0.390511783,14.8096551 C5.79549335,5.84167399 12.1021343,2.21591638 18.5940818,1.26285106 L18.5940818,6.27316128 C14.4290373,6.41224875 7.56025838,10.2782484 3.7310043,17.3859345" id="path1632"></path>
                </g>
                <g id="g1634" transform="translate(12.657873, 0.168985)" fill="#CE1041" fill-rule="nonzero">
                    <path d="M0,3.161079 L3.34049252,0.6322158 C4.87890996,3.49457283 6.94588634,5.78319403 9.0837518,7.54865665 C12.2737605,10.124936 15.6901167,11.5569048 18.20357,11.6975728 L18.20357,16.6604669 C15.0894251,16.1831439 12.0486566,15.1320852 9.0837518,13.1753773 C5.89249946,11.0780014 2.81566458,7.83631484 0,3.161079" id="path1636"></path>
                </g>
                <g id="g1638" transform="translate(7.027787, 4.366898)" fill="#CE1041" fill-rule="nonzero">
                    <path d="M0,3.161079 L3.30318247,0.823461079 C6.00567325,6.11668787 10.1346513,10.4600104 14.7138373,13.0821254 C17.641432,14.8001719 20.7568206,15.8006534 23.8348991,16.0408954 L23.8348991,20.9042154 C20.7195105,20.7145507 17.641432,19.7599048 14.7138373,18.2805199 C8.67085399,15.1336657 3.34173618,9.60177746 0,3.161079" id="path1640"></path>
                </g>
                <g id="g1642" transform="translate(0.599266, 7.908886)" fill="#CE1041" fill-rule="nonzero">
                    <path d="M21.1423577,23.7080925 C16.7882757,21.8003813 12.0212959,18.7941952 8.49300945,14.9297761 C5.56665842,11.5916767 2.60051,8.10816764 0.761124877,3.95767091 L4.06430735,1.52522062 C5.41493091,5.24897168 9.80756664,11.0179409 14.9874443,14.9771923 C17.0133796,16.505574 19.1151787,17.6973008 21.1423577,18.6503661 C25.0462319,20.4142482 28.5359646,21.1333937 30.2634195,20.9405678 L30.2634195,25.9003008 C28.1243104,26.0457104 24.7838179,25.2333131 21.1423577,23.7080925" id="path1644"></path>
                </g>
            </g>
        </g>
    </g>
</svg>