<?xml version="1.0" encoding="UTF-8"?>
<svg width="289px" height="61px" viewBox="0 0 289 61" version="1.1" xmlns="http://www.w3.org/2000/svg" xmlns:xlink="http://www.w3.org/1999/xlink">
    <!-- Generator: Sketch 56 (81588) - https://sketch.com -->
    <title>OCBC-bank-original@SVG</title>
    <desc>Created with Sketch.</desc>
    <g id="Page-1" stroke="none" stroke-width="1" fill="none" fill-rule="evenodd">
        <g id="OCBC-bank-original" fill="#E11A27" fill-rule="nonzero">
            <path d="M215.6,36.561 C215.6,33.532 213.782,30.501 210.147,29.693 L210.147,29.491 C212.975,28.481 214.995,25.654 214.995,22.826 C214.995,17.978 211.157,15.351 204.491,15.351 C200.653,15.351 196.411,15.351 193.786,15.554 L193.786,45.851 C197.624,45.851 201.057,46.054 202.876,46.054 C212.57,46.055 215.6,41.003 215.6,36.561 L215.6,36.561 Z M208.529,23.835 C208.529,26.663 206.508,28.278 202.267,28.278 L199.842,28.278 L199.842,20.199 C200.855,20.199 202.066,19.997 203.279,19.997 C207.318,19.997 208.529,21.612 208.529,23.835 L208.529,23.835 Z M209.137,36.762 C209.137,39.59 207.116,41.206 203.075,41.206 C201.863,41.206 200.65,41.003 199.843,41.003 L199.843,32.5219994 L202.471,32.5219994 C206.51,32.521 209.137,33.73 209.137,36.762 L209.137,36.762 Z M237.615,45.852 C237.414,44.036 237.414,42.014 237.414,40.198 L237.414,30.704 C237.414,25.856 235.191,23.028 227.92,23.028 C224.891,23.028 221.861,23.634 219.639,24.241 L220.246,29.089 C222.062,27.876 224.891,27.271 226.91,27.271 C230.344,27.271 231.355,28.483 231.355,30.705 L231.355,32.119 C223.476,32.119 218.023,34.946 218.023,40.399 C218.023,44.037 220.447,46.256 224.486,46.256 C227.92,46.256 230.748,44.44 231.961,42.016 C231.758,43.227 231.758,44.44 231.758,45.852 L237.615,45.852 L237.615,45.852 Z M231.557,36.561 C231.557,39.186 229.536,42.014 226.708,42.014 C225.093,42.014 224.081,41.206 224.081,39.59 C224.081,37.774 225.294,35.954 231.557,35.954 L231.557,36.561 L231.557,36.561 Z M263.066,45.852 L263.066,30.097 C263.066,26.259 261.451,23.027 256.199,23.027 C252.361,23.027 249.734,24.845 248.322,27.471 C248.523,26.259 248.523,24.441 248.523,23.431 L243.07,23.431 L243.07,45.851 L248.926,45.851 L248.926,35.146 C248.926,31.308 251.351,27.875 254.379,27.875 C256.603,27.875 257.207,29.289 257.207,31.713 L257.207,46.055 L263.066,45.852 Z M288.92,45.852 L280.234,33.733 L288.314,23.432 L281.043,23.432 L274.377,32.724 L274.377,12.927 L268.52,12.927 L268.52,45.852 L274.377,45.852 L274.377,34.743 L281.447,45.851 L288.92,45.851 L288.92,45.852 Z M100.265,30.097 C100.265,19.392 93.801,14.745 85.116,14.745 C76.027,14.745 68.756,21.007 68.756,30.904 C68.756,40.6 73.604,46.255 83.904,46.255 C92.993,46.458 100.265,40.195 100.265,30.097 Z M92.186,30.702 C92.186,37.568 87.944,39.993 84.308,39.993 C79.056,39.993 76.834,36.357 76.834,30.298 C76.834,24.036 80.672,21.209 84.51,21.209 C89.56,21.209 92.186,24.44 92.186,30.702 Z M126.927,45.245 L126.119,38.982 C124.503,39.588 122.079,39.993 120.262,39.993 C114.202,39.993 111.779,36.558 111.779,30.702 C111.779,25.249 114.606,21.612 120.06,21.612 C122.08,21.612 124.099,21.815 126.12,22.421 L126.928,15.958 C124.908,15.351 122.485,15.149 120.263,15.149 C109.356,15.149 103.497,21.612 103.497,31.51 C103.497,38.578 106.932,46.053 118.849,46.053 C121.474,46.255 124.503,45.852 126.927,45.245 L126.927,45.245 Z M155.811,36.357 C155.811,33.328 153.79,30.296 150.358,29.691 L150.358,29.49 C153.186,28.278 155.206,25.653 155.206,23.026 C155.206,17.977 150.964,15.35 143.895,15.35 C139.856,15.35 134.806,15.35 131.776,15.553 L131.776,45.85 C136.624,45.85 140.259,46.0530006 142.28,46.0530006 C151.975,46.055 155.811,41.206 155.811,36.357 Z M147.328,24.036 C147.328,26.46 145.51,27.673 141.874,27.673 L139.652,27.673 L139.652,21.007 L142.681,21.007 C145.713,21.007 147.328,22.219 147.328,24.036 L147.328,24.036 Z M147.732,36.561 C147.732,38.985 145.914,40.399 142.48,40.399 C141.268,40.399 140.056,40.198 139.653,40.198 L139.653,32.9269975 L142.077,32.9269975 C145.51,32.925 147.732,34.136 147.732,36.561 Z M182.676,45.245 L181.867,38.982 C180.252,39.588 177.828,39.993 176.213,39.993 C170.152,39.993 167.729,36.558 167.729,30.702 C167.729,25.249 170.557,21.612 175.809,21.612 C177.83,21.612 179.848,21.815 181.869,22.421 L182.678,15.958 C180.658,15.351 178.236,15.149 176.013,15.149 C165.107,15.149 159.248,21.612 159.248,31.51 C159.248,38.578 162.683,46.053 174.599,46.053 C177.424,46.255 180.252,45.852 182.676,45.245 L182.676,45.245 Z M18.662,21.209 L5.936,12.726 C7.957,9.898 10.38,7.474 13.41,5.656 L24.317,16.765 C22.096,17.774 20.076,19.188 18.662,21.209 Z M15.431,29.087 L1.089,23.633 C1.898,20.199 3.311,16.968 5.129,13.938 L18.056,22.017 C16.441,24.036 15.632,26.46 15.431,29.087 Z M32.599,35.752 L17.046,29.692 C17.45,27.268 18.46,25.046 19.874,23.229 L32.599,31.307 L32.599,35.752 Z M32.599,30.501 L20.48,22.421 C21.894,20.603 23.915,19.392 25.934,18.583 L32.398,25.047 L32.398,30.501 L32.599,30.501 Z M1.898,40.802 C0.686,37.571 0.08,34.338 0.08,30.702 C0.08,28.682 0.282,26.864 0.686,24.845 L15.431,30.097 L15.431,30.702 C15.431,34.136 16.643,37.568 18.865,40.195 L19.067,40.195 C17.855,37.771 17.046,35.347 17.046,32.519 C17.046,31.914 17.046,31.306 17.248,30.702 L33.003,36.155 L33.003,40.6 L1.898,40.802 Z M2.907,43.63 C2.705,43.024 2.503,42.417 2.098,41.813 L11.188,41.813 L12.804,43.63 L26.337,43.63 L23.509,46.659 L6.745,46.659 C6.341,45.044 4.725,43.63 2.907,43.63 Z M37.447,44.234 C38.458,43.63 39.468,43.023 40.275,42.214 C40.881,41.81 41.487,41.204 41.891,40.599 C44.315,37.771 45.729,34.538 45.729,30.702 C45.729,22.219 38.861,15.35 30.377,15.35 C28.56,15.35 26.943,15.553 25.529,16.159 L14.824,4.444 C19.267,1.818 24.721,0.202 30.377,0.202 C47.344,0.202 60.675,13.735 60.675,30.501 C60.675,47.266 47.143,60.798 30.377,60.798 C22.096,60.798 14.622,57.364 8.967,51.911 L46.132,51.911 L46.334,51.709 L7.351,50.295 L7.149,50.093 L48.758,50.093 L48.96,49.893 L5.533,47.871 L5.129,47.669 L22.096,47.669 C22.096,47.669 30.579,47.871 37.447,44.234 L37.447,44.234 Z" id="Shape"></path>
        </g>
    </g>
</svg>