<?xml version="1.0" encoding="UTF-8"?>
<svg width="41px" height="52px" viewBox="0 0 41 52" version="1.1" xmlns="http://www.w3.org/2000/svg" xmlns:xlink="http://www.w3.org/1999/xlink">
    <!-- Generator: Sketch 56 (81588) - https://sketch.com -->
    <title>Fill 12@SVG</title>
    <desc>Created with Sketch.</desc>
    <g id="Page-1" stroke="none" stroke-width="1" fill="none" fill-rule="evenodd">
        <g id="Public_Bank" transform="translate(-76.000000, -51.000000)" fill="#CF2A2C">
            <path d="M117,62.7926653 L105.176316,51 L88.0138936,51 L76,62.9854773 L76,75.3575829 L77.9070459,77.0969081 L76,78.8362334 L76,91.208339 L87.8226937,103 L105.367516,103 L117,91.4021552 L117,78.6434213 L115.283163,77.0969081 L117,75.5503949 L117,62.7926653 Z M96.5951046,99.3275333 L82.4829653,85.0222862 L84.0086019,83.475773 L87.8226937,87.1492439 L105.367516,87.1492439 L109.181607,83.2829609 L110.897453,85.0222862 L96.5951046,99.3275333 Z M90.3023486,77.0969081 L96.5951046,70.7180433 L103.079061,77.0969081 L96.5951046,83.475773 L90.3023486,77.0969081 Z M109.181607,70.7180433 L105.176316,66.8517603 L88.0138936,66.8517603 L84.0086019,70.9108553 L82.4829653,69.1715301 L96.5951046,54.866283 L110.897453,69.1715301 L109.181607,70.7180433 L109.181607,70.7180433 Z" id="Fill-12"></path>
        </g>
    </g>
</svg>