<?xml version="1.0" encoding="UTF-8" standalone="no"?>
<!-- Created with Inkscape (http://www.inkscape.org/) -->

<svg
   xmlns:dc="http://purl.org/dc/elements/1.1/"
   xmlns:cc="http://creativecommons.org/ns#"
   xmlns:rdf="http://www.w3.org/1999/02/22-rdf-syntax-ns#"
   xmlns:svg="http://www.w3.org/2000/svg"
   xmlns="http://www.w3.org/2000/svg"
   version="1.1"
   width="144.09"
   height="52.360001"
   id="svg3449">
  <defs
     id="defs3451" />
  <metadata
     id="metadata3454">
    <rdf:RDF>
      <cc:Work
         rdf:about="">
        <dc:format>image/svg+xml</dc:format>
        <dc:type
           rdf:resource="http://purl.org/dc/dcmitype/StillImage" />
        <dc:title></dc:title>
      </cc:Work>
    </rdf:RDF>
  </metadata>
  <g
     transform="translate(0,-1000.0022)"
     id="layer1">
    <g
       transform="matrix(1.25,0,0,-1.25,141.66093,1028.0156)"
       id="g140">
      <path
         d="M 0,0 -16.332,-16.336 -32.665,0 -16.332,16.33 0,0 z"
         id="path142"
         style="fill:#ef3e42;fill-opacity:1;fill-rule:nonzero;stroke:none" />
    </g>
    <g
       transform="matrix(1.25,0,0,-1.25,2.2578028,1050.3888)"
       id="g144">
      <path
         d="m 0,0 3.604,25.287 c 0.805,5.58 6.694,10.448 13.01,10.448 6.409,0 9.45,-4.454 8.833,-8.728 L 24.924,23.326 C 24.496,20.24 22.216,17.271 18.181,15.076 L 22.312,8.072 C 22.787,7.301 22.978,6.115 22.787,4.864 22.36,2.195 20.365,0 18.181,0 16.995,0 16.044,0.65 15.476,1.66 L 9.396,12.17 8.352,4.808 C 7.971,2.136 5.976,0 3.839,0 L 0,0 z m 14.43,30.51 c -1.379,0 -2.66,-1.366 -2.896,-3.087 l -1.041,-7.622 c -0.236,-1.722 0.666,-3.089 2.043,-3.089 1.376,0 2.658,1.367 2.896,3.089 l 1.04,7.622 c 0.238,1.721 -0.667,3.087 -2.042,3.087"
         id="path146"
         style="fill:#0067b1;fill-opacity:1;fill-rule:nonzero;stroke:none" />
    </g>
    <g
       transform="matrix(1.25,0,0,-1.25,39.099303,1012.6948)"
       id="g148">
      <path
         d="M 0,0 C 0.427,3.087 2.848,5.638 5.318,5.638 7.787,5.638 9.449,3.087 9.021,0 l -1.755,-12.763 4.892,0 L 13.961,0 c 0.427,3.087 2.85,5.638 5.32,5.638 2.469,0 4.131,-2.551 3.703,-5.638 l -3.419,-24.516 c -0.428,-3.086 -2.849,-5.64 -5.32,-5.64 -2.468,0 -4.13,2.554 -3.703,5.64 l 1.093,7.954 -4.938,0 -1.093,-7.954 c -0.429,-3.086 -2.85,-5.64 -5.318,-5.64 l -4.466,0 L 0,0 z"
         id="path150"
         style="fill:#0067b1;fill-opacity:1;fill-rule:nonzero;stroke:none" />
    </g>
    <g
       transform="matrix(1.25,0,0,-1.25,99.155813,1018.4835)"
       id="g152">
      <path
         d="m 0,0 c -0.381,-2.375 -1.664,-4.689 -3.944,-6.826 1.568,-1.663 2.232,-3.858 1.9,-5.996 l -0.332,-2.196 c -0.854,-5.64 -6.697,-10.506 -12.964,-10.506 l -9.926,0 3.656,25.344 c 0.81,5.581 6.698,10.448 13.012,10.448 6.41,0 9.498,-4.451 8.832,-8.726 L 0,0 z m -12.206,-8.014 c -1.568,0 -3.039,-1.602 -3.325,-3.562 l -0.712,-5.105 c -0.284,-1.958 0.76,-3.56 2.327,-3.56 1.567,0 3.088,1.602 3.372,3.56 l 0.713,5.105 c 0.286,1.96 -0.81,3.562 -2.375,3.562 m 1.9,13 c -1.567,0 -2.993,-1.603 -3.325,-3.562 L -14.2,-2.078 c -0.335,-1.959 0.76,-3.561 2.327,-3.561 1.567,0 3.039,1.602 3.373,3.561 l 0.568,3.502 c 0.333,1.959 -0.808,3.562 -2.374,3.562"
         id="path154"
         style="fill:#0067b1;fill-opacity:1;fill-rule:nonzero;stroke:none" />
    </g>
  </g>
</svg>
