<?xml version="1.0" encoding="UTF-8"?>
<svg width="35px" height="35px" viewBox="0 0 35 35" version="1.1" xmlns="http://www.w3.org/2000/svg" xmlns:xlink="http://www.w3.org/1999/xlink">
    <!-- Generator: Sketch 56 (81588) - https://sketch.com -->
    <title>UOB_original@1.5x</title>
    <desc>Created with Sketch.</desc>
    <g id="Page-1" stroke="none" stroke-width="1" fill="none" fill-rule="evenodd">
        <g id="UOB_original" fill="#E1091D" fill-rule="nonzero">
            <path d="M26.0350203,34.0399841 C26.0350203,34.8509952 27.1500188,34.9519842 27.7580315,34.9519842 L28.2650173,34.9519842 C29.78503,34.8522046 29.78503,34.2430203 29.78503,34.0399841 L29.78503,1.41200101 C29.8851875,0.600007256 28.7710205,0.50000095 28.0620189,0.50000095 L27.7619244,0.50000095 C27.1499054,0.50000095 26.0349069,0.600158437 26.0349069,1.41200101 L26.0350203,34.0399841 Z" id="Path_1"></path>
            <path d="M5.66797656,34.0399841 C5.66797656,34.8509952 6.78301285,34.9519842 7.39098769,34.9519842 L7.89801134,34.9519842 C9.41798624,34.8522046 9.41798624,34.2430203 9.41798624,34.0399841 L9.41798624,1.41200101 C9.41700356,0.600007256 8.40397673,0.50000095 7.69501291,0.50000095 L7.3949184,0.50000095 C6.68092781,0.50000095 5.66790097,0.600158437 5.66790097,1.41200101 L5.66797656,34.0399841 Z" id="Path_2"></path>
            <path d="M12.4569912,34.0399841 C12.4569912,34.8509952 13.5719896,34.9519842 14.1800023,34.9519842 L14.7880149,34.9519842 C16.3079898,34.8522046 16.3079898,34.2430203 16.3079898,34.0399841 L16.3079898,1.41200101 C16.3070071,0.600007256 15.1929913,0.50000095 14.5850165,0.50000095 L14.1800023,0.50000095 C13.5719896,0.50000095 12.4569912,0.600158437 12.4569912,1.41200101 L12.4569912,34.0399841 Z" id="Path_3"></path>
            <path d="M19.2460057,34.0399841 C19.2460057,34.8509952 20.3610042,34.9519842 20.9690169,34.9519842 L21.4760027,34.9519842 C22.9960154,34.8522046 22.9960154,34.2430203 22.9960154,34.0399841 L22.9960154,1.41200101 C22.9949949,0.600007256 21.8810169,0.50000095 21.2730043,0.50000095 L20.9729098,0.50000095 C20.3608909,0.50000095 19.2458924,0.600158437 19.2458924,1.41200101 L19.2460057,34.0399841 Z" id="Path_4"></path>
            <path d="M1.4120015,15.8010035 C0.600007747,15.8010035 0.500001442,16.916002 0.500001442,17.5240146 L0.500001442,18.1319894 C0.600158928,19.6520021 1.20900306,19.6520021 1.4120015,19.6520021 L34.0399846,19.6520021 C34.8509957,19.6520021 34.9519847,18.5370036 34.9519847,17.928991 L34.9519847,17.5240146 C34.9519847,16.916002 34.8522051,15.8010035 34.0399846,15.8010035 L1.4120015,15.8010035 Z" id="Path_5"></path>
        </g>
    </g>
</svg>