<svg id="ach.svg" xmlns="http://www.w3.org/2000/svg" width="70" height="70" viewBox="0 0 70 70">
  <defs>
    <style>
      .cls-1 {
        fill: #f0f;
        opacity: 0.01;
      }

      .cls-2, .cls-3 {
        fill: #8faabd;
        fill-rule: evenodd;
      }

      .cls-3 {
        opacity: 0.5;
      }
    </style>
  </defs>
  <rect class="cls-1" width="70" height="70"/>
  <path class="cls-2" d="M401.644,547.321s-0.667-.137-0.667.356v1.53a0.72,0.72,0,0,1-.667.763H355.687a0.718,0.718,0,0,1-.667-0.763v-1.53c0-.493-0.668-0.356-0.668-0.356-1.838,0-1.977-.646-0.313-1.441L376.187,535.3a4.747,4.747,0,0,1,3.623,0l22.147,10.577C403.623,546.676,403.481,547.321,401.644,547.321Zm-47.987,32.935s0.985,0.079.985-1.5a0.71,0.71,0,0,1,.66-0.749H400.7a0.706,0.706,0,0,1,.66.749c0,1.576.985,1.5,0.985,1.5a0.708,0.708,0,0,1,.66.749v2.249a0.707,0.707,0,0,1-.66.749H353.657a0.708,0.708,0,0,1-.66-0.749v-2.249A0.707,0.707,0,0,1,353.657,580.256Z" transform="translate(-343 -526)"/>
  <path class="cls-3" d="M399.5,574.5a0.5,0.5,0,0,1,.5.5v1a0.5,0.5,0,0,1-.5.5h-9a0.5,0.5,0,0,1-.5-0.5v-1a0.5,0.5,0,0,1,.5-0.5A1.5,1.5,0,0,0,392,573V555a1.5,1.5,0,0,0-1.5-1.5,0.5,0.5,0,0,1-.5-0.5v-1a0.5,0.5,0,0,1,.5-0.5h9a0.5,0.5,0,0,1,.5.5v1a0.5,0.5,0,0,1-.5.5A1.5,1.5,0,0,0,398,555v18A1.5,1.5,0,0,0,399.5,574.5Zm-17,2h-9a0.5,0.5,0,0,1-.5-0.5v-1a0.5,0.5,0,0,1,.5-0.5A1.5,1.5,0,0,0,375,573V555a1.5,1.5,0,0,0-1.5-1.5,0.5,0.5,0,0,1-.5-0.5v-1a0.5,0.5,0,0,1,.5-0.5h9a0.5,0.5,0,0,1,.5.5v1a0.5,0.5,0,0,1-.5.5A1.5,1.5,0,0,0,381,555v18a1.5,1.5,0,0,0,1.5,1.5,0.5,0.5,0,0,1,.5.5v1A0.5,0.5,0,0,1,382.5,576.5Zm-17,0h-9a0.5,0.5,0,0,1-.5-0.5v-1a0.5,0.5,0,0,1,.5-0.5A1.5,1.5,0,0,0,358,573V555a1.5,1.5,0,0,0-1.5-1.5,0.5,0.5,0,0,1-.5-0.5v-1a0.5,0.5,0,0,1,.5-0.5h9a0.5,0.5,0,0,1,.5.5v1a0.5,0.5,0,0,1-.5.5A1.5,1.5,0,0,0,364,555v18a1.5,1.5,0,0,0,1.5,1.5,0.5,0.5,0,0,1,.5.5v1A0.5,0.5,0,0,1,365.5,576.5Z" transform="translate(-343 -526)"/>
</svg>
